<svg xmlns="http://www.w3.org/2000/svg" viewBox="0 0 83.79 110.05"><defs><style>.cls-1{fill:#15222b;}.cls-2{fill:#ffe8d4;}.cls-3{fill:#ff4a17;}</style></defs><g id="Layer_2" data-name="Layer 2"><g id="Layer_1-2" data-name="Layer 1"><path class="cls-1" d="M7.93,110.05a9.16,9.16,0,0,0-1.07-.57C2.33,107.84.06,104.73,0,99.9c0-8.81,0-17.62,0-26.44Q0,47.89,0,22.31c0-7,3.74-10.69,10.78-10.7q24.28,0,48.57,0A2.62,2.62,0,0,0,62.18,10,51.61,51.61,0,0,1,64.81,5,10.05,10.05,0,0,1,78.45,1.28a10.12,10.12,0,0,1,4.26,13.51c0,.06-.06.13-.1.19-4.33,5.82-4.88,12.42-4.79,19.47C78.1,55.22,77.76,76,78,96.77c.08,6.48-1.62,11.21-8.17,13.28ZM57.48,18.61a9.54,9.54,0,0,0-1-.11q-23.1,0-46.21,0c-2.64,0-3.41.86-3.41,3.76q0,38.47,0,76.95c0,3.06.73,3.77,3.85,3.77q28.26,0,56.53,0c3,0,3.78-.74,3.78-3.84Q71.05,69,71,39c0-.51-.06-1-.12-2.21a62.62,62.62,0,0,0-3.61,6.78c-2,5.19-6,8-10.75,10.13-3.56,1.6-8.12.28-9.16-3.36-1.26-4.41-2.27-9,.28-13.52C51,30.86,54.14,24.83,57.48,18.61ZM53.71,47.26c2.77-1.33,5.39-2.5,6.84-5.64,2.19-4.73,4.88-9.22,7.35-13.81,2.85-5.29,5.72-10.56,8.51-15.87a3.21,3.21,0,0,0-1.24-4.61c-1.7-1-3.42-.42-4.55,1.41-.22.36-.42.74-.62,1.12-5,9.25-9.82,18.58-15,27.71A12.43,12.43,0,0,0,53.71,47.26Z"/><path class="cls-2" d="M57.48,18.61c-3.34,6.22-6.46,12.25-9.8,18.16-2.55,4.51-1.54,9.11-.28,13.52,1,3.64,5.6,5,9.16,3.36,4.75-2.15,8.8-4.94,10.75-10.13a62.62,62.62,0,0,1,3.61-6.78C71,37.92,71,38.44,71,39Q71,69,71,99.13c0,3.1-.73,3.84-3.78,3.84Q39,103,10.73,103c-3.12,0-3.85-.71-3.85-3.77q0-38.47,0-76.95c0-2.9.77-3.76,3.41-3.76q23.1,0,46.21,0A9.54,9.54,0,0,1,57.48,18.61ZM38.93,75.71c7,0,14,0,21,0,2.73,0,4.27-1.24,4.28-3.39S62.68,68.85,60,68.85H18.15c-2.71,0-4.26,1.28-4.27,3.42s1.52,3.43,4.24,3.43C25.06,75.72,32,75.71,38.93,75.71Zm-.1,11.62c7.22,0,14.45,0,21.67,0A3.33,3.33,0,0,0,64,84a3.44,3.44,0,0,0-3.29-3.55,9.73,9.73,0,0,0-1.08,0q-20.8,0-41.61,0c-2.78,0-4.49,1.4-4.42,3.55s1.67,3.31,4.4,3.31Q28.43,87.36,38.83,87.33ZM31.17,64.08v0H44.69c2.69,0,4.31-1.27,4.34-3.37s-1.58-3.5-4.24-3.5q-13.51,0-27,0c-2.51,0-4.09,1.35-4.12,3.38s1.56,3.46,4.23,3.47C22.3,64.1,26.73,64.08,31.17,64.08Z"/><path class="cls-3" d="M53.71,47.26A12.43,12.43,0,0,1,55,37.57c5.19-9.13,10-18.46,15-27.71.2-.38.4-.76.62-1.12,1.13-1.83,2.85-2.36,4.55-1.41a3.21,3.21,0,0,1,1.24,4.61c-2.79,5.31-5.66,10.58-8.51,15.87-2.47,4.59-5.16,9.08-7.35,13.81C59.1,44.76,56.48,45.93,53.71,47.26Z"/><path class="cls-3" d="M38.93,75.71c-6.93,0-13.87,0-20.81,0-2.72,0-4.24-1.25-4.24-3.43s1.56-3.42,4.27-3.42H60c2.69,0,4.26,1.32,4.25,3.46S62.69,75.7,60,75.7C53,75.72,45.94,75.71,38.93,75.71Z"/><path class="cls-3" d="M38.83,87.33q-10.41,0-20.81,0c-2.73,0-4.33-1.22-4.4-3.31s1.64-3.55,4.42-3.55q20.81,0,41.61,0a9.73,9.73,0,0,1,1.08,0A3.44,3.44,0,0,1,64,84a3.33,3.33,0,0,1-3.52,3.27C53.28,87.36,46.05,87.33,38.83,87.33Z"/><path class="cls-3" d="M31.17,64.08c-4.44,0-8.87,0-13.31,0-2.67,0-4.26-1.33-4.23-3.47s1.61-3.38,4.12-3.38q13.52,0,27,0c2.66,0,4.27,1.38,4.24,3.5s-1.65,3.37-4.34,3.37H31.17Z"/></g></g></svg>