<svg xmlns="http://www.w3.org/2000/svg" viewBox="0 0 103.97 103.95"><defs><style>.cls-1{fill:#15222b;}.cls-2{fill:#ffe8d4;stroke:#ff4a17;stroke-miterlimit:10;stroke-width:4.98px;}</style></defs><g id="Layer_2" data-name="Layer 2"><g id="Layer_1-2" data-name="Layer 1"><path class="cls-1" d="M51.87,104c-2.12,0-4.25,0-6.37,0-1.76,0-2.53-.81-2.54-2.58q0-3.47,0-7a5.3,5.3,0,0,0-3.52-5.33c-1.64-.68-3.26-1.41-4.9-2.08a5,5,0,0,0-5.94,1.2c-1.66,1.68-3.33,3.34-5,5-1.37,1.34-2.56,1.36-3.93,0q-4.48-4.44-8.93-8.93c-1.34-1.35-1.3-2.55.06-3.92,1.6-1.62,3.2-3.25,4.84-4.84a5.2,5.2,0,0,0,1.27-6.14c-.68-1.68-1.34-3.38-2.07-5a5.11,5.11,0,0,0-5-3.31c-2.39,0-4.79,0-7.18,0C.81,61,0,60.24,0,58.42Q0,52,0,45.55C0,43.72.81,43,2.65,43c2.31,0,4.63,0,7,0a5.23,5.23,0,0,0,5.25-3.45c.69-1.64,1.41-3.26,2.09-4.91a5.07,5.07,0,0,0-1.21-6c-1.69-1.65-3.35-3.33-5-5-1.3-1.32-1.32-2.53,0-3.84q4.48-4.53,9-9c1.31-1.29,2.51-1.25,3.84.05,1.62,1.6,3.24,3.2,4.83,4.84a5.27,5.27,0,0,0,6.34,1.25c1.57-.65,3.16-1.27,4.73-1.92A5.25,5.25,0,0,0,43,9.68c0-2.36,0-4.71,0-7.07C43,.83,43.73,0,45.48,0q6.5,0,13,0C60.23,0,61,.82,61,2.58c0,2.32,0,4.63,0,7a5.32,5.32,0,0,0,3.51,5.34c1.64.68,3.26,1.41,4.9,2.08a5,5,0,0,0,5.95-1.18q2.48-2.52,5-5c1.39-1.36,2.56-1.38,3.92,0q4.5,4.44,8.94,8.93c1.35,1.36,1.32,2.53,0,3.92-1.57,1.6-3.14,3.2-4.75,4.75a5.29,5.29,0,0,0-1.28,6.44c.66,1.57,1.26,3.16,1.93,4.72a5.19,5.19,0,0,0,5.14,3.43h7c2,0,2.76.73,2.77,2.7q0,6.38,0,12.75c0,1.82-.81,2.59-2.63,2.61-2.32,0-4.64,0-7,0a5.25,5.25,0,0,0-5.25,3.46c-.67,1.6-1.36,3.2-2,4.8a5.09,5.09,0,0,0,1.17,6.14c1.66,1.62,3.29,3.27,4.92,4.92,1.38,1.41,1.39,2.62,0,4q-4.41,4.44-8.85,8.85c-1.38,1.36-2.54,1.35-3.93,0-1.6-1.57-3.2-3.14-4.75-4.76a5.31,5.31,0,0,0-6.43-1.31c-1.6.68-3.23,1.29-4.83,2A5.15,5.15,0,0,0,61,94.18c0,2.39,0,4.79,0,7.18,0,1.77-.78,2.56-2.54,2.58C56.28,104,54.07,104,51.87,104Zm0-32.81c10.26.25,19.1-8.35,19.27-19a19.15,19.15,0,1,0-38.3-.28C32.62,62.17,41.23,70.88,51.85,71.14Z"/><circle class="cls-2" cx="51.99" cy="51.88" r="19.78"/></g></g></svg>