<svg xmlns="http://www.w3.org/2000/svg" viewBox="0 0 95.7 110.95"><defs><style>.cls-1{fill:#15222b;}.cls-2{fill:#ffe8d4;}.cls-3{fill:#ff4a17;}</style></defs><g id="Layer_2" data-name="Layer 2"><g id="Layer_1-2" data-name="Layer 1"><path class="cls-1" d="M42.33,11.47c-1.17,0-2.17,0-3.17,0-1.61,0-2.3-.66-2.33-2.21,0-2.35,0-4.7,0-7A2,2,0,0,1,39,0C44.9,0,50.79,0,56.67,0a2,2,0,0,1,2.22,2.16c0,2.35,0,4.71,0,7.06,0,1.55-.71,2.18-2.3,2.23-1,0-2,0-3,0a3.72,3.72,0,0,0-.18.59c-.26,3.33-.26,3.33,3,3.89a47.85,47.85,0,0,1-.46,94.25C30.1,114.9,4.8,96.87.62,70.8A47.78,47.78,0,0,1,41,15.69c1-.15,1.4-.5,1.32-1.51C42.27,13.34,42.33,12.5,42.33,11.47Zm5.53,12.29A39.26,39.26,0,1,0,87.1,63.06,39.27,39.27,0,0,0,47.86,23.76Z"/><path class="cls-2" d="M47.86,23.76A39.26,39.26,0,1,1,8.62,62.91,39.27,39.27,0,0,1,47.86,23.76Zm0,7.1c-11.38-.77-28.51,7.6-31.94,26.69C12.78,74.69,24.18,91.22,41.5,94.78,56,97.76,74.28,88.32,77,76.41c-.42-.2-.84-.43-1.27-.62-8.8-4-17.59-8.06-26.41-12a2.31,2.31,0,0,1-1.58-2.51c.07-7.43,0-14.86,0-22.29Z"/><path class="cls-3" d="M47.81,30.86V39c0,7.43,0,14.86,0,22.29a2.31,2.31,0,0,0,1.58,2.51c8.82,4,17.61,8,26.41,12,.43.19.85.42,1.27.62C74.28,88.32,56,97.76,41.5,94.78,24.18,91.22,12.78,74.69,15.87,57.55,19.3,38.46,36.43,30.09,47.81,30.86Z"/></g></g></svg>